<svg xmlns="http://www.w3.org/2000/svg" viewBox="0 0 512 512" width="512px" height="512px" data-arp-injected="true"><path d="M 445.99023 20.998047 C 426.69323 20.998047 410.99023 36.701047 410.99023 55.998047 C 410.99023 75.295047 426.69323 90.998047 445.99023 90.998047 C 465.28723 90.998047 480.99023 75.295047 480.99023 55.998047 C 480.99023 36.701047 465.28723 20.998047 445.99023 20.998047 z M 261.67578 40.958984 C 212.26775 40.809522 162.86781 57.214063 122.5 90.042969 L 122.5 70.080078 C 122.5 64.552078 118.022 60.080078 112.5 60.080078 C 106.973 60.080078 102.5 64.553078 102.5 70.080078 C 102.515 115.33408 102.39645 112.95608 102.68945 114.45508 C 103.43645 118.20508 106.27373 121.23745 110.05273 122.18945 C 111.78573 122.62845 109.97088 122.50391 154.92188 122.50391 C 160.44887 122.50391 164.92188 118.03091 164.92188 112.50391 C 164.92188 106.98591 160.44887 102.50391 154.92188 102.50391 L 138.9707 102.50391 C 216.6657 42.434906 329.84602 47.004125 402.41602 119.57812 C 456.56602 173.72813 475.09152 255.41378 449.60352 327.67578 C 447.76752 332.88078 450.50103 338.59269 455.70703 340.42969 C 460.91303 342.26569 466.62689 339.54017 468.46289 334.32617 C 496.11789 255.93117 477.71864 166.60059 416.55664 105.43359 C 373.67733 62.559594 317.67156 41.128375 261.67578 40.958984 z M 445.99023 40.998047 C 454.26123 40.998047 460.99023 47.727047 460.99023 55.998047 C 460.99023 64.269047 454.26123 70.998047 445.99023 70.998047 C 437.71923 70.998047 430.99023 64.269047 430.99023 55.998047 C 430.99023 47.727047 437.71923 40.998047 445.99023 40.998047 z M 40.990234 90.998047 A 10 10 0 0 0 40.990234 110.99805 A 10 10 0 0 0 40.990234 90.998047 z M 320.98828 100.99805 C 315.46928 100.99805 310.98828 105.47605 310.98828 110.99805 C 310.98828 116.52005 315.46928 120.99805 320.98828 120.99805 C 326.51628 120.99805 330.98828 116.52005 330.98828 110.99805 C 330.98828 105.47605 326.51428 100.99805 320.98828 100.99805 z M 246.9043 104.00195 C 242.2213 104.00195 238.16553 107.24836 237.14453 111.81836 L 229.0918 147.87891 C 220.1368 150.41791 211.59513 153.96847 203.57812 158.48047 L 172.34375 138.64648 C 168.38875 136.13648 163.22311 136.70758 159.91211 140.01758 L 140.00977 159.91992 C 136.70377 163.22592 136.12781 168.38789 138.63281 172.33789 L 158.42383 203.59766 C 153.87783 211.70766 150.33766 220.24747 147.84766 229.10547 L 111.8125 237.15234 C 107.2425 238.17334 103.99414 242.22911 103.99414 246.91211 L 103.99414 275.08789 C 103.99414 279.77089 107.2425 283.82166 111.8125 284.84766 L 147.8418 292.89453 C 150.3418 301.80053 153.88111 310.34106 158.41211 318.41406 L 138.63281 349.6582 C 136.12781 353.6072 136.70377 358.76908 140.00977 362.08008 L 159.91211 381.98242 C 163.22311 385.28842 168.37898 385.85938 172.33398 383.35938 L 203.58984 363.56836 C 211.69984 368.10936 220.24066 371.65053 229.09766 374.14453 L 237.14453 410.17578 C 238.16553 414.74578 242.2213 417.99609 246.9043 417.99609 L 275.08008 417.99609 C 279.75808 417.99609 283.82089 414.74578 284.83789 410.17578 L 292.88477 374.14453 C 301.79077 371.64453 310.33434 368.10522 318.40234 363.57422 L 349.6543 383.35938 C 353.5983 385.85938 358.76417 385.28842 362.07617 381.98242 L 381.97656 362.08008 C 385.27856 358.76908 385.85547 353.6072 383.35547 349.6582 L 363.55859 318.39844 C 368.09959 310.28844 371.64477 301.75253 374.13477 292.89453 L 410.16992 284.84766 C 414.73992 283.82266 417.99219 279.77089 417.99219 275.08789 L 417.99219 246.91211 C 417.99219 242.22911 414.73992 238.17334 410.16992 237.15234 L 374.13477 229.10547 C 371.64477 220.24847 368.09959 211.70866 363.55859 203.59766 L 383.35547 172.33789 C 385.85547 168.38789 385.27856 163.22592 381.97656 159.91992 L 362.07617 140.01758 C 358.75617 136.70658 353.58958 136.13648 349.64258 138.64648 L 318.40234 158.48047 C 310.38334 153.96847 301.84853 150.41791 292.89453 147.87891 L 284.83789 111.81836 C 283.82089 107.24836 279.75808 104.00195 275.08008 104.00195 L 246.9043 104.00195 z M 460.99023 110.99805 C 455.47123 110.99805 450.99023 115.47605 450.99023 120.99805 C 450.99023 126.52005 455.47123 130.99805 460.99023 130.99805 C 466.51623 130.99805 470.99023 126.52005 470.99023 120.99805 C 470.99023 115.47605 466.51823 110.99805 460.99023 110.99805 z M 254.91797 124.00391 L 267.0625 124.00391 L 274.70898 158.22656 C 275.54898 161.99656 278.48781 164.94092 282.25781 165.79492 C 293.36181 168.32392 303.76202 172.65025 313.16602 178.65625 C 316.44702 180.74625 320.6272 180.75102 323.9082 178.66602 L 353.5957 159.82812 L 362.16992 168.40234 L 343.38086 198.08984 C 341.31086 201.35184 341.30914 205.5172 343.36914 208.7832 C 349.45414 218.3922 353.76259 228.78841 356.18359 239.69141 C 357.02459 243.47541 359.98372 246.4343 363.76172 247.2793 L 397.99023 254.92578 L 397.99023 267.07422 L 363.76172 274.7168 C 359.98372 275.5678 357.02459 278.51959 356.18359 282.30859 C 353.76159 293.20659 349.45314 303.6078 343.36914 313.2168 C 341.30714 316.4848 341.30886 320.64516 343.38086 323.91016 L 362.16992 353.59375 L 353.58594 362.17773 L 323.89844 343.38281 C 320.62744 341.31281 316.44659 341.31844 313.18359 343.39844 C 303.68159 349.44344 293.29092 353.75041 282.29492 356.19141 C 278.51692 357.03141 275.55803 359.98444 274.70703 363.77344 L 267.06055 397.99805 L 254.91406 397.99805 L 247.26953 363.77344 C 246.42453 359.98444 243.46564 357.03141 239.68164 356.19141 C 228.77864 353.76941 218.37648 349.45881 208.77148 343.38281 C 205.50448 341.31881 201.34412 341.31881 198.07812 343.38281 L 168.39062 362.17773 L 159.80664 353.59375 L 178.60156 323.91016 C 180.67656 320.63916 180.6718 316.45941 178.5918 313.19141 C 172.5418 303.68941 168.23983 293.29859 165.79883 282.30859 C 164.95383 278.51959 161.99884 275.56484 158.21484 274.71484 L 123.99023 267.07031 L 123.99023 254.92383 L 158.21484 247.27734 C 162.00184 246.43434 164.95578 243.47541 165.80078 239.69141 C 168.22278 228.78841 172.53037 218.3872 178.60938 208.7832 C 180.67437 205.5212 180.66952 201.35084 178.60352 198.08984 L 159.81055 168.40234 L 168.38867 159.82812 L 198.07227 178.66602 C 201.34827 180.75102 205.53759 180.74625 208.80859 178.65625 C 218.21759 172.65025 228.61856 168.32392 239.72656 165.79492 C 243.49156 164.94092 246.43148 161.99556 247.27148 158.22656 L 254.91797 124.00391 z M 67.03125 170.22461 C 63.134531 170.2473 59.442609 172.56322 57.849609 176.38672 C 24.162609 257.35072 41.311828 352.45245 105.42383 416.56445 C 186.13683 497.27945 313.36133 501.99194 399.48633 431.96094 L 399.48633 451.92188 C 399.48633 457.44387 403.95933 461.92188 409.48633 461.92188 C 415.00433 461.92188 419.48633 457.44387 419.48633 451.92188 L 419.48633 409.49805 C 419.48533 408.67005 419.38891 408.22261 419.37891 408.09961 C 419.28091 407.44161 419.30083 407.56245 419.17383 407.06445 C 419.04683 406.53845 419.08563 406.66072 418.89062 406.13672 C 418.71463 405.62872 418.76406 405.74581 418.53906 405.25781 C 418.26606 404.68181 418.29484 404.7552 418.08984 404.4082 C 417.72984 403.8032 417.78739 403.92559 417.52539 403.55859 C 417.29939 403.25459 417.22059 403.12264 416.68359 402.55664 C 416.63459 402.51364 416.59564 402.46392 416.55664 402.41992 C 416.51764 402.37592 416.46869 402.34173 416.42969 402.30273 C 415.90369 401.78973 415.70712 401.67252 415.45312 401.47852 C 414.97413 401.12252 415.13056 401.22811 414.60156 400.91211 C 414.12256 400.62411 414.28095 400.70603 413.75195 400.45703 C 413.25395 400.22403 413.35181 400.26266 412.88281 400.09766 C 412.32581 399.89666 412.42384 399.93145 411.96484 399.81445 C 410.22684 399.36545 411.86673 399.50119 367.05273 399.49219 C 361.53473 399.49219 357.05273 403.97019 357.05273 409.49219 C 357.05273 415.01319 361.53473 419.49414 367.05273 419.49414 L 383.00977 419.49414 C 305.31477 479.56714 192.13636 474.99283 119.56836 402.42383 C 62.038359 344.89483 45.061406 259.18727 76.316406 184.07227 C 78.435406 178.96927 76.023781 173.12009 70.925781 170.99609 C 69.651281 170.46509 68.330156 170.21705 67.03125 170.22461 z M 100.99023 180.99805 A 10 10 0 0 0 100.99023 200.99805 A 10 10 0 0 0 100.99023 180.99805 z M 261.05859 192.79492 C 223.40959 192.79492 192.78516 223.4195 192.78516 261.0625 C 192.78316 298.6375 223.40859 329.20313 261.05859 329.20312 C 298.62559 329.20312 329.19336 298.6375 329.19336 261.0625 C 329.19336 223.4205 298.62759 192.79492 261.05859 192.79492 z M 261.05859 212.79688 C 287.60159 212.79688 309.19336 234.4455 309.19336 261.0625 C 309.19336 287.6055 287.60159 309.20312 261.05859 309.20312 C 234.43859 309.20312 212.78516 287.6055 212.78516 261.0625 C 212.78316 234.4465 234.43859 212.79688 261.05859 212.79688 z M 261.00977 232.79492 C 245.45077 232.79492 232.7832 245.45153 232.7832 261.01953 C 232.7832 276.56353 245.45077 289.20312 261.00977 289.20312 C 276.55777 289.20312 289.19336 276.56053 289.19336 261.01953 C 289.19336 245.45253 276.55777 232.79492 261.00977 232.79492 z M 261.00977 252.79297 C 265.52277 252.79297 269.19336 256.48253 269.19336 261.01953 C 269.19336 265.45753 265.45477 269.20508 261.00977 269.20508 C 256.47577 269.20508 252.78906 265.53253 252.78906 261.01953 C 252.78906 256.48253 256.47577 252.79297 261.00977 252.79297 z M 100.99023 311 A 10 10 0 0 0 100.99023 331 A 10 10 0 0 0 100.99023 311 z M 40.990234 371 A 10 10 0 0 0 40.990234 391 A 10 10 0 0 0 40.990234 371 z M 320.98828 401 C 315.47128 401 310.98828 405.479 310.98828 411 C 310.98828 416.521 315.46928 421 320.98828 421 C 326.51428 421 330.98828 416.521 330.98828 411 C 330.98828 405.479 326.51428 401 320.98828 401 z M 450.99023 411 C 445.47123 411 440.99023 415.479 440.99023 421 C 440.99023 426.523 445.47123 431 450.99023 431 C 456.51623 431 460.99023 426.523 460.99023 421 C 460.99023 415.479 456.51823 411 450.99023 411 z M 70.990234 421 C 54.447234 421 40.990234 434.45795 40.990234 451.00195 C 40.990234 467.54495 54.447234 481.00195 70.990234 481.00195 C 87.533234 481.00195 100.99023 467.54495 100.99023 451.00195 C 100.99023 434.45795 87.533234 421 70.990234 421 z M 70.990234 441 C 76.503234 441 80.990234 445.48895 80.990234 451.00195 C 80.990234 456.51495 76.502234 461.00195 70.990234 461.00195 C 65.472234 461.00195 60.990234 456.51495 60.990234 451.00195 C 60.990234 445.48895 65.472234 441 70.990234 441 z M 150.99023 471.00195 A 10 10 0 0 0 150.99023 491.00195 A 10 10 0 0 0 150.99023 471.00195 z" fill="#FFDB6E"/></svg>