<?xml version="1.0" encoding="utf-8"?>
<svg xmlns="http://www.w3.org/2000/svg" viewBox="0 0 100 100" width="400" height="400">
  <path d="M46.5 13C29.66753 13 16 26.66753 16 43.5C16 45.08456 16.127178 46.637389 16.359375 48.152344 A 1.0001 1.0001 0 0 0 16.460938 48.458984C17.162118 52.745634 18.709215 56.751353 21.005859 60.240234 A 1.0001 1.0001 0 0 0 21.007812 60.240234C24.204289 65.092704 26 70.712066 26 76.498047L26 87 A 1.0001 1.0001 0 1 0 28 87L28 76.498047C28 70.298028 26.075212 64.298155 22.677734 59.140625C20.481521 55.804311 18.98575 51.973502 18.355469 47.849609 A 1.0001 1.0001 0 0 0 18.326172 47.71875C18.12055 46.338167 18 44.93364 18 43.5C18 27.74847 30.74847 15 46.5 15C60.912423 15 72.802045 25.683415 74.722656 39.556641C74.805716 40.155166 74.988854 40.749811 75.292969 41.300781 A 1.0001 1.0001 0 0 0 75.308594 41.328125L81.816406 52.279297C82.224313 52.966085 81.955116 53.813938 81.224609 54.138672L74.59375 57.085938 A 1.0001 1.0001 0 0 0 74 58L74 66C74 70.982593 69.982593 75 65 75L59.535156 75L59.5 75L59 75L50.5 75 A 0.50005 0.50005 0 1 0 50.5 76L58 76L58 87 A 1.0001 1.0001 0 1 0 60 87L60 77L65 77C71.063407 77 76 72.063407 76 66L76 58.650391L82.037109 55.966797C83.830602 55.169531 84.537249 52.945024 83.535156 51.257812L77.044922 40.333984L77.044922 40.332031C76.871533 40.017441 76.757928 39.662083 76.705078 39.28125C74.649689 24.434476 61.901577 13 46.5 13 z M 44.003906 26.287109 A 1.0001 1.0001 0 0 0 43.84375 26.302734C41.496557 26.744296 39.328198 27.677577 37.433594 28.970703 A 1.0001 1.0001 0 0 0 37.222656 30.429688C37.871217 31.221401 37.841079 32.360765 37.101562 33.099609C36.361759 33.839413 35.221381 33.870591 34.429688 33.220703 A 1.0001 1.0001 0 0 0 32.96875 33.429688C31.673578 35.324182 30.740484 37.493038 30.298828 39.841797 A 1.0001 1.0001 0 0 0 31.185547 41.023438C32.210569 41.121021 33 41.949784 33 43C33 44.047944 32.21437 44.877755 31.193359 44.976562 A 1.0001 1.0001 0 0 0 30.306641 46.15625C30.749389 48.497401 31.664478 50.676048 32.962891 52.574219 A 1.0001 1.0001 0 0 0 34.423828 52.78125C35.217039 52.127978 36.359395 52.15755 37.099609 52.898438C37.839413 53.638241 37.869478 54.778336 37.220703 55.570312 A 1.0001 1.0001 0 0 0 37.431641 57.029297C39.327289 58.322411 41.496844 59.253806 43.84375 59.695312 A 1.0001 1.0001 0 0 0 45.023438 58.808594C45.122307 57.786255 45.951156 57 47 57C48.047944 57 48.877755 57.78563 48.976562 58.806641 A 1.0001 1.0001 0 0 0 50.15625 59.693359C52.497401 59.250611 54.676048 58.335522 56.574219 57.037109 A 1.0001 1.0001 0 0 0 56.78125 55.574219C56.128627 54.782468 56.157764 53.640391 56.898438 52.900391C57.638241 52.160587 58.778336 52.130522 59.570312 52.779297 A 1.0001 1.0001 0 0 0 61.029297 52.568359C62.322411 50.672711 63.253806 48.503156 63.695312 46.15625 A 1.0001 1.0001 0 0 0 62.808594 44.976562C61.786255 44.877693 61 44.048844 61 43C61 41.952056 61.78563 41.122245 62.806641 41.023438 A 1.0001 1.0001 0 0 0 63.693359 39.84375C63.250611 37.502599 62.335522 35.323952 61.037109 33.425781 A 1.0001 1.0001 0 0 0 59.576172 33.21875C58.782961 33.872022 57.640605 33.84245 56.900391 33.101562C56.160587 32.361759 56.130522 31.221663 56.779297 30.429688 A 1.0001 1.0001 0 0 0 56.568359 28.970703C54.672711 27.677589 52.503156 26.746195 50.15625 26.304688 A 1.0001 1.0001 0 0 0 48.976562 27.191406C48.877693 28.213745 48.048844 29 47 29C45.951156 29 45.123606 28.214597 45.025391 27.191406 A 1.0001 1.0001 0 0 0 44.003906 26.287109 z M 43.363281 28.525391C43.967056 29.963555 45.348284 31 47 31C48.651843 31 50.032445 29.963001 50.636719 28.525391C52.074737 28.888145 53.422074 29.452804 54.664062 30.199219C54.076555 31.641925 54.319386 33.348683 55.486328 34.515625C56.653941 35.684298 58.362409 35.92448 59.806641 35.333984C60.550386 36.574133 61.112504 37.923871 61.474609 39.365234C60.036843 39.969128 59 41.348415 59 43C59 44.651843 60.036999 46.032445 61.474609 46.636719C61.111855 48.074737 60.547196 49.422074 59.800781 50.664062C58.358075 50.076555 56.651317 50.319386 55.484375 51.486328C54.314964 52.654678 54.074107 54.364036 54.666016 55.808594C53.426083 56.552104 52.07582 57.112582 50.634766 57.474609C50.030872 56.036843 48.651585 55 47 55C45.348157 55 43.967555 56.036999 43.363281 57.474609C41.925263 57.111855 40.577926 56.547196 39.335938 55.800781C39.923445 54.358075 39.680614 52.651317 38.513672 51.484375C37.346059 50.315702 35.637591 50.07552 34.193359 50.666016C33.449614 49.425867 32.887496 48.076129 32.525391 46.634766C33.963157 46.030872 35 44.651585 35 43C35 41.345656 33.960455 39.96437 32.519531 39.361328C32.88272 37.923331 33.449376 36.577406 34.197266 35.335938C35.640466 35.924509 37.348729 35.680568 38.515625 34.513672C39.682797 33.347561 39.925179 31.64205 39.337891 30.199219C40.579012 29.452798 41.925882 28.888358 43.363281 28.525391 z M 46.466797 35.025391C46.112887 35.048361 45.756063 35.088151 45.400391 35.160156 A 0.50025175 0.50025175 0 1 0 45.599609 36.140625C45.895937 36.080635 46.209113 36.044465 46.533203 36.023438 A 0.50012701 0.50012701 0 0 0 46.466797 35.025391 z M 48.5 35.150391 A 0.50005 0.50005 0 0 0 48.400391 36.140625C48.69532 36.200445 48.944532 36.359414 49.224609 36.455078L48.414062 39.253906C47.978694 39.101912 47.510538 39 47 39C45.75 39 44.685226 39.504756 44.001953 40.273438C43.889779 40.399633 43.801708 40.538909 43.708984 40.675781L40.814453 39.837891C41.471068 38.559073 42.464031 37.482579 43.734375 36.810547 A 0.50005 0.50005 0 0 0 43.490234 35.865234 A 0.50005 0.50005 0 0 0 43.265625 35.927734C41.705703 36.752958 40.516217 38.112981 39.78125 39.724609 A 0.50005 0.50005 0 0 0 39.564453 40.216797C39.235175 41.091758 39 42.010862 39 43C39 43.24615 39.147943 43.441099 39.169922 43.681641 A 0.50005 0.50005 0 0 0 39.361328 44.455078C39.513939 45.234028 39.567883 46.054366 39.927734 46.734375 A 0.50005 0.50005 0 1 0 40.810547 46.265625C40.502927 45.684317 40.462919 44.983171 40.328125 44.320312L43.054688 43.646484C43.166485 44.398806 43.470283 45.128434 44.001953 45.726562C44.612967 46.413953 45.538331 46.867876 46.619141 46.960938L47.349609 49.916016C47.225185 49.922613 47.126136 50 47 50C45.420571 50 43.972828 49.47215 42.800781 48.589844 A 0.50005 0.50005 0 1 0 42.199219 49.388672C43.535172 50.394365 45.197429 51 47 51C47.246898 51 47.444362 50.856025 47.685547 50.833984 A 0.50005 0.50005 0 0 0 48.449219 50.650391C49.56184 50.43412 50.558681 50.056458 51.455078 49.429688 A 0.50005 0.50005 0 0 0 52.078125 48.904297C52.513484 48.528464 53.04251 48.26073 53.388672 47.800781 A 0.50005 0.50005 0 1 0 52.589844 47.199219C52.298183 47.586751 51.851553 47.809536 51.488281 48.128906L49.560547 46.121094C49.715139 45.996567 49.869251 45.871458 49.998047 45.726562C50.681319 44.957881 51 43.972222 51 43C51 42.428095 50.876378 41.856569 50.646484 41.322266L52.800781 39.251953C53.428244 40.223321 53.895637 41.309246 53.976562 42.533203 A 0.50012701 0.50012701 0 0 0 54.974609 42.466797C54.874246 40.948848 54.27665 39.598291 53.447266 38.427734 A 0.50005 0.50005 0 0 0 53.154297 37.962891C52.387827 37.024408 51.405134 36.318635 50.291016 35.806641 A 0.50005 0.50005 0 0 0 49.707031 35.583984C49.334302 35.447153 48.996237 35.2406 48.599609 35.160156 A 0.50005 0.50005 0 0 0 48.5 35.150391 z M 50.162109 36.8125C50.952292 37.217592 51.678047 37.724651 52.257812 38.386719L50.119141 40.441406C50.075859 40.386952 50.044716 40.32594 49.998047 40.273438C49.805558 40.056888 49.57678 39.868492 49.328125 39.699219L50.162109 36.8125 z M 40.40625 40.761719L43.238281 41.582031C43.120509 41.918912 43.061563 42.268907 43.03125 42.621094L40.085938 43.349609C40.079282 43.224916 40 43.126442 40 43C40 42.209732 40.16521 41.469232 40.40625 40.761719 z M 47 41C47.749999 41 48.185226 41.245244 48.501953 41.601562C48.81868 41.957881 49 42.472222 49 43C49 43.527778 48.81868 44.042119 48.501953 44.398438C48.185226 44.754756 47.749999 45 47 45C46.250001 45 45.814774 44.754755 45.498047 44.398438C45.18132 44.042119 45 43.527778 45 43C45 42.472222 45.18132 41.957882 45.498047 41.601562C45.814774 41.245244 46.250001 41 47 41 z M 48.689453 46.658203L50.722656 48.773438C50.000477 49.244393 49.196746 49.504521 48.322266 49.681641L47.644531 46.933594C48.014799 46.8792 48.368873 46.796418 48.689453 46.658203 z M 46.5 75 A 0.50005 0.50005 0 1 0 46.5 76L48.5 76 A 0.50005 0.50005 0 1 0 48.5 75L46.5 75 z" fill="#FFDB6E" />
</svg>